<svg xmlns="http://www.w3.org/2000/svg" width="225" height="225" viewBox="0 0 225 225" version="1.1">
	<path fill-opacity="0.373" d="M 112.077 80.750 C 103.068 100.963, 93.013 123.463, 89.731 130.750 L 83.765 144 51.883 144 C 27 144, 20.018 144.274, 20.081 145.250 C 20.125 145.938, 24.975 154.150, 30.859 163.500 L 41.558 180.500 69.926 180.500 L 98.294 180.500 120.377 129.764 L 142.460 79.027 174.158 78.764 L 205.856 78.500 196.351 61.250 L 186.845 44 157.651 44 L 128.456 44 112.077 80.750 M 17.513 77.489 C 7.146 96.579, 0.162 110.499, 0.579 111.239 C 0.969 111.933, 4.865 118.244, 9.236 125.264 L 17.182 138.028 48.217 137.764 L 79.251 137.500 99.136 93 C 110.073 68.525, 119.275 47.702, 119.586 46.726 C 120.113 45.067, 119.030 44.970, 102.883 45.226 L 85.615 45.500 72.969 73.500 L 60.323 101.500 55.662 101.805 C 53.098 101.972, 51 101.739, 51 101.286 C 51 100.833, 56.175 88.124, 62.500 73.043 C 68.825 57.963, 74 45.484, 74 45.312 C 74 45.141, 65.260 45, 54.579 45 L 35.158 45 17.513 77.489 M 146.154 84.736 C 144.793 87.314, 105 179.984, 105 180.575 C 105 180.850, 109.139 180.946, 114.197 180.788 L 123.394 180.500 133.886 156.250 C 144.022 132.821, 144.472 132, 147.189 132 C 148.735 132, 150 132.192, 150 132.428 C 150 132.663, 145.950 143.295, 141 156.055 C 136.050 168.815, 132 179.648, 132 180.127 C 132 180.607, 135.338 181, 139.417 181 L 146.834 181 155 156.500 L 163.166 132 167.083 132 C 169.237 132, 171 132.386, 171 132.859 C 171 133.331, 167.400 144.167, 163 156.938 C 158.600 169.710, 155 180.358, 155 180.602 C 155 180.846, 163.144 180.922, 173.097 180.773 L 191.195 180.500 208.166 146.728 L 225.138 112.956 216.696 98.228 L 208.254 83.500 177.670 83.236 C 149.309 82.990, 147.018 83.099, 146.154 84.736" stroke="none" fill="#0B2A78" fill-rule="evenodd"/>
	<path fill-opacity="0.756" d="M 17.865 77.612 L 0.229 110.191 8.865 124.079 L 17.500 137.966 48.050 137.983 L 78.601 138 96.750 97.250 C 106.732 74.838, 116.041 53.913, 117.437 50.750 L 119.975 45 103.137 45 L 86.299 45 73.359 73.750 L 60.418 102.500 55.124 102.805 C 50.076 103.096, 49.862 103.009, 50.525 100.921 C 50.907 99.716, 56.297 86.641, 62.502 71.865 L 73.784 45 54.642 45.017 L 35.500 45.034 17.865 77.612 M 106.294 94.755 L 84.088 144.500 52.130 145 L 20.172 145.500 30.836 162.721 L 41.500 179.942 69.871 179.721 L 98.242 179.500 120.338 128.764 L 142.434 78.028 173.664 77.764 L 204.894 77.500 195.865 61.250 L 186.835 45 157.668 45.005 L 128.500 45.011 106.294 94.755 M 126.633 130.907 C 115.285 157.257, 106 179.099, 106 179.446 C 106 179.794, 109.913 179.948, 114.695 179.789 L 123.390 179.500 133.845 155.250 L 144.300 131 147.650 131 C 149.492 131, 151 131.124, 151 131.275 C 151 131.427, 146.773 142.452, 141.608 155.775 L 132.215 180 139.524 180 L 146.834 180 155 155.500 L 163.166 131 167.583 131 C 170.012 131, 171.993 131.338, 171.984 131.750 C 171.976 132.162, 168.376 142.837, 163.984 155.471 C 159.593 168.105, 156 178.803, 156 179.244 C 156 179.685, 163.909 179.923, 173.575 179.773 L 191.149 179.500 207.934 146.250 L 224.719 113.001 216.110 98.001 L 207.500 83.002 177.383 83.001 L 147.266 83 126.633 130.907" stroke="none" fill="#0B2A78" fill-rule="evenodd"/>
</svg>