<svg xmlns="http://www.w3.org/2000/svg" width="360" height="140" viewBox="0 0 360 140" version="1.1">
	<path fill-opacity="0.420" d="M 18.072 50.810 C 14.228 57.305, 10.854 63.268, 10.574 64.060 C 10.294 64.852, 11.063 66.716, 12.283 68.202 L 14.500 70.904 29.423 71.053 L 44.345 71.203 53.637 55.851 C 58.748 47.408, 62.946 40.163, 62.965 39.750 C 62.984 39.337, 59.697 39, 55.659 39 L 48.319 39 42.358 48.750 C 36.701 58.004, 36.209 58.516, 32.699 58.810 C 30.664 58.981, 29 58.884, 29 58.596 C 29 58.307, 31.475 53.989, 34.500 49 C 37.525 44.011, 40 39.721, 40 39.465 C 40 39.209, 36.639 39, 32.530 39 L 25.060 39 18.072 50.810 M 58.671 57.501 L 47.842 76 31.877 76 L 15.912 76 20.206 84.250 L 24.500 92.500 38.254 92.778 L 52.008 93.056 54.754 88.684 C 56.264 86.280, 61.550 77.292, 66.500 68.711 L 75.500 53.110 96.238 52.805 L 116.976 52.500 112.933 45.750 L 108.889 39 89.195 39.001 L 69.500 39.002 58.671 57.501 M 134 49.326 C 134 57.781, 134.216 58.854, 136.314 60.826 C 139.310 63.640, 145.822 63.774, 149.139 61.089 C 151.272 59.363, 151.534 58.246, 151.850 49.497 C 152.174 40.518, 152.065 39.841, 150.350 40.169 C 148.753 40.474, 148.460 41.677, 148.206 48.961 C 148.045 53.603, 147.427 57.985, 146.834 58.700 C 145.127 60.757, 139.249 60.333, 138.035 58.066 C 137.466 57.002, 137 52.502, 137 48.066 C 137 41.563, 136.709 40, 135.500 40 C 134.274 40, 134 41.703, 134 49.326 M 156 51.500 C 156 60.919, 156.264 63, 157.461 63 C 158.608 63, 158.984 61.137, 159.211 54.342 L 159.500 45.684 165.257 54.342 C 173.142 66.202, 174 65.923, 174 51.500 C 174 41.944, 173.746 40, 172.500 40 C 171.282 40, 170.999 41.642, 170.993 48.750 L 170.986 57.500 165.243 48.769 C 157.120 36.420, 156 36.751, 156 51.500 M 179 51.427 C 179 62.395, 179.106 63, 181.033 63 C 182.973 63, 183.053 62.486, 182.783 51.762 C 182.537 41.986, 182.272 40.480, 180.750 40.189 C 179.165 39.885, 179 40.943, 179 51.427 M 185.004 40.250 C 185.006 40.388, 186.956 45.450, 189.338 51.500 C 195.031 65.958, 195.798 65.963, 201.584 51.572 C 204 45.562, 205.777 40.444, 205.532 40.199 C 204.030 38.697, 201.813 41.984, 198.972 49.927 C 197.187 54.917, 195.613 59, 195.475 59 C 195.336 59, 193.749 54.725, 191.948 49.500 C 189.410 42.136, 188.261 40, 186.837 40 C 185.827 40, 185.002 40.112, 185.004 40.250 M 208 51.500 L 208 63 216.500 63 C 223.389 63, 225 62.716, 225 61.500 C 225 60.321, 223.611 60, 218.500 60 L 212 60 212 56.500 L 212 53 218 53 C 222.667 53, 224 52.667, 224 51.500 C 224 50.333, 222.667 50, 218 50 L 212 50 212 46.500 L 212 43 218.500 43 C 223.611 43, 225 42.679, 225 41.500 C 225 40.284, 223.389 40, 216.500 40 L 208 40 208 51.500 M 229 51.500 C 229 61.056, 229.254 63, 230.500 63 C 231.633 63, 232 61.778, 232 58 C 232 53.145, 232.084 53, 234.911 53 C 237.771 53, 240.216 55.119, 244.032 60.907 C 244.914 62.244, 246.303 63.075, 247.303 62.865 C 248.803 62.550, 248.579 61.816, 245.669 57.519 C 242.343 52.607, 242.325 52.522, 244.398 51.489 C 246.001 50.690, 246.500 49.506, 246.500 46.500 C 246.500 41.495, 243.969 40.035, 235.250 40.015 L 229 40 229 51.500 M 253.455 42.455 C 252.105 43.805, 251 45.609, 251 46.464 C 251 48.751, 254.421 51.298, 259.779 53 C 263.748 54.261, 264.500 54.898, 264.500 57 C 264.500 59.296, 264.133 59.500, 260 59.500 C 256.292 59.500, 255.326 59.104, 254.513 57.250 C 253.298 54.480, 251 54.291, 251 56.961 C 251 62.804, 261.797 65.294, 266.545 60.545 C 267.895 59.195, 269 57.496, 269 56.768 C 269 53.817, 265.749 51.069, 260.428 49.522 C 255.653 48.134, 254.917 47.598, 255.187 45.704 C 255.638 42.530, 262.366 41.948, 263.970 44.944 C 265.224 47.287, 268 47.720, 268 45.573 C 268 43.214, 262.994 40, 259.320 40 C 257.032 40, 255.101 40.808, 253.455 42.455 M 273 51.500 C 273 61.056, 273.254 63, 274.500 63 C 275.746 63, 276 61.056, 276 51.500 C 276 41.944, 275.746 40, 274.500 40 C 273.254 40, 273 41.944, 273 51.500 M 281 51.500 L 281 63 286.453 63 C 293.481 63, 296.508 61.556, 298.565 57.222 C 300.982 52.129, 299.958 46.245, 296.046 42.750 C 293.415 40.399, 292.100 40, 286.984 40 L 281 40 281 51.500 M 309.620 40.807 C 309.032 41.758, 301 62.152, 301 62.693 C 301 62.862, 301.835 63, 302.855 63 C 304.092 63, 305.020 61.916, 305.638 59.750 C 306.493 56.752, 306.925 56.477, 311.199 56.199 C 315.697 55.906, 315.871 56.002, 317.118 59.449 C 317.964 61.790, 319.038 63, 320.268 63 C 322.463 63, 322.488 63.102, 317.070 50 C 313.481 41.319, 311.111 38.394, 309.620 40.807 M 324 51.500 L 324 63 329.435 63 C 332.424 63, 336.003 62.569, 337.387 62.043 C 342.215 60.207, 344.542 51.479, 341.805 45.472 C 340.142 41.822, 336.061 40, 329.550 40 L 324 40 324 51.500 M 232 46.552 L 232 50.105 237.147 49.802 C 246.728 49.240, 245.959 43, 236.309 43 C 232.039 43, 232 43.032, 232 46.552 M 284 51.500 L 284 60 288 60 C 293.521 60, 296 57.366, 296 51.500 C 296 45.634, 293.521 43, 288 43 L 284 43 284 51.500 M 328 51.500 L 328 60 331.845 60 C 337.057 60, 339.500 57.225, 339.500 51.307 C 339.500 45.919, 336.650 43, 331.389 43 L 328 43 328 51.500 M 309.734 48.269 L 308.121 53 311.510 53 L 314.898 53 313.579 49.750 C 312.853 47.962, 312.054 45.833, 311.803 45.019 C 311.550 44.198, 310.627 45.647, 309.734 48.269 M 76.600 61.750 C 71.504 70.138, 59 92.035, 59 92.570 C 59 92.855, 62.238 92.955, 66.195 92.794 L 73.391 92.500 79.885 81.250 C 85.204 72.038, 86.798 70, 88.690 70 C 89.961 70, 91 70.299, 91 70.664 C 91 71.029, 88.525 75.759, 85.500 81.174 C 82.475 86.590, 80 91.466, 80 92.011 C 80 92.555, 81.757 93, 83.904 93 L 87.808 93 94.129 81.500 C 99.837 71.114, 100.719 70, 103.225 70 C 104.751 70, 106 70.168, 106 70.374 C 106 70.579, 103.300 75.513, 100 81.337 C 96.700 87.162, 94 92.187, 94 92.506 C 94 92.824, 97.476 92.953, 101.725 92.792 L 109.450 92.500 114.714 83.500 C 117.610 78.550, 121.175 72.232, 122.637 69.460 L 125.294 64.420 122.897 60.723 L 120.500 57.025 99.993 57.012 L 79.485 57 76.600 61.750 M 315 66 C 314.170 67.551, 314.240 68, 315.310 68 C 316.069 68, 317.505 67.100, 318.500 66 C 320.256 64.060, 320.247 64, 318.190 64 C 317.024 64, 315.589 64.900, 315 66 M 136.223 70.557 C 133.512 72.455, 133.264 77.026, 135.750 79.270 C 136.713 80.139, 139.607 81.379, 142.182 82.026 C 149.957 83.980, 149.482 89.378, 141.586 88.800 C 138.472 88.571, 137.265 87.965, 136.513 86.250 C 135.327 83.547, 133 83.266, 133 85.826 C 133 91.585, 144.423 94.371, 148.826 89.686 C 153.249 84.977, 150.903 81.051, 142.104 78.438 C 137.660 77.118, 136.923 76.557, 137.188 74.693 C 137.638 71.529, 144.340 70.970, 146.196 73.942 C 147.692 76.338, 150 76.677, 150 74.500 C 150 69.777, 141.009 67.204, 136.223 70.557 M 157.074 79.548 C 152.545 91.273, 152.390 92, 154.422 92 C 155.205 92, 156.365 90.425, 157 88.500 C 158.091 85.194, 158.403 85, 162.629 85 C 166.796 85, 167.202 85.240, 168.564 88.500 C 169.518 90.781, 170.697 92, 171.952 92 C 173.693 92, 173.453 90.990, 169.435 81.399 C 166.992 75.569, 164.744 70.394, 164.438 69.899 C 162.800 67.250, 160.824 69.838, 157.074 79.548 M 176 80.500 C 176 90.056, 176.254 92, 177.500 92 C 178.718 92, 179.001 90.358, 179.007 83.250 L 179.014 74.500 184.757 83.231 C 192.880 95.580, 194 95.249, 194 80.500 C 194 71.081, 193.736 69, 192.539 69 C 191.392 69, 191.016 70.863, 190.789 77.658 L 190.500 86.316 184.743 77.658 C 176.858 65.798, 176 66.077, 176 80.500 M 197 70.500 C 197 71.548, 198.056 72, 200.500 72 L 204 72 204 82 C 204 91.333, 204.133 92, 206 92 C 207.867 92, 208 91.333, 208 82 L 208 72 211.500 72 C 213.944 72, 215 71.548, 215 70.500 C 215 69.278, 213.333 69, 206 69 C 198.667 69, 197 69.278, 197 70.500 M 221.333 70.676 C 220.969 71.679, 218.980 76.888, 216.911 82.250 C 213.521 91.040, 213.333 92, 214.998 92 C 216.222 92, 217.234 90.820, 218 88.500 C 219.091 85.194, 219.403 85, 223.629 85 C 227.796 85, 228.202 85.240, 229.564 88.500 C 230.950 91.815, 234.081 93.429, 233.929 90.750 C 233.891 90.063, 231.946 85, 229.607 79.500 C 225.376 69.547, 222.755 66.752, 221.333 70.676 M 244 80.500 C 244 90.056, 244.254 92, 245.500 92 C 246.714 92, 247.012 90.332, 247.065 83.250 L 247.129 74.500 250.247 83.288 C 254.132 94.239, 255.482 94.346, 259.161 83.991 L 261.823 76.500 262.161 83.989 C 262.443 90.223, 262.799 91.536, 264.283 91.819 C 265.923 92.132, 266.044 91.245, 265.783 80.830 C 265.522 70.372, 265.346 69.478, 263.499 69.213 C 261.811 68.971, 261.046 70.259, 258.600 77.463 C 257.006 82.158, 255.425 86, 255.087 86 C 254.750 86, 253.175 82.175, 251.587 77.500 C 249.062 70.062, 248.408 69, 246.351 69 C 244.019 69, 244 69.095, 244 80.500 M 276.620 69.807 C 276.032 70.758, 268 91.152, 268 91.693 C 268 91.862, 268.835 92, 269.855 92 C 271.092 92, 272.020 90.916, 272.638 88.750 C 273.493 85.752, 273.925 85.477, 278.199 85.199 C 282.697 84.906, 282.871 85.002, 284.118 88.449 C 284.941 90.725, 286.048 92, 287.201 92 C 288.190 92, 289 91.868, 289 91.706 C 289 91.544, 287.019 86.482, 284.599 80.456 C 280.555 70.391, 278.201 67.248, 276.620 69.807 M 291.430 70.321 C 291.151 71.048, 291.053 76.105, 291.212 81.560 C 291.459 90.074, 291.747 91.524, 293.250 91.812 C 294.731 92.095, 295 91.366, 295 87.073 C 295 82.328, 295.162 82, 297.500 82 C 300.273 82, 302.784 84.133, 305.577 88.862 C 306.597 90.588, 308.234 92, 309.216 92 C 311.597 92, 311.498 91.527, 308.039 86.402 L 305.077 82.014 307.539 79.552 C 310.641 76.450, 310.643 74.552, 307.545 71.455 C 305.437 69.346, 304.164 69, 298.514 69 C 293.986 69, 291.779 69.412, 291.430 70.321 M 315 80.500 C 315 90.056, 315.254 92, 316.500 92 C 317.746 92, 318 90.056, 318 80.500 C 318 70.944, 317.746 69, 316.500 69 C 315.254 69, 315 70.944, 315 80.500 M 329.140 70.750 C 328.150 72.615, 321 90.927, 321 91.600 C 321 91.820, 321.698 92, 322.551 92 C 323.404 92, 324.760 90.425, 325.564 88.500 C 326.923 85.248, 327.340 85, 331.449 85 C 335.595 85, 335.950 85.218, 337.136 88.500 C 337.944 90.734, 339.052 92, 340.201 92 C 341.190 92, 342 91.849, 342 91.665 C 342 91.404, 336.311 77.380, 333.312 70.250 C 332.550 68.438, 330.221 68.717, 329.140 70.750 M 295 75.552 L 295 79.105 300.250 78.802 C 304.919 78.533, 305.537 78.236, 305.837 76.113 C 306.266 73.080, 304.586 72.035, 299.250 72.015 C 295.045 72, 295 72.037, 295 75.552 M 161.744 75.005 C 161.424 76.377, 160.848 78.513, 160.464 79.750 C 159.844 81.751, 160.111 82, 162.883 82 C 166.446 82, 166.468 81.898, 164.089 76.505 C 162.411 72.701, 162.299 72.629, 161.744 75.005 M 222.158 76.866 C 220.604 82.052, 220.586 82, 223.939 82 L 226.879 82 225.345 77.500 C 224.502 75.025, 223.701 73, 223.564 73 C 223.428 73, 222.795 74.740, 222.158 76.866 M 276.734 77.269 L 275.121 82 278.510 82 L 281.898 82 280.579 78.750 C 279.853 76.963, 279.054 74.833, 278.803 74.019 C 278.550 73.198, 277.627 74.647, 276.734 77.269 M 329.731 77.277 L 328.121 82 331.061 82 C 334.303 82, 334.489 81.276, 332.594 76.027 L 331.340 72.554 329.731 77.277" stroke="none" fill="#0B2A78" fill-rule="evenodd"/>
	<path fill-opacity="0.689" d="M 24.264 41.250 C 23.724 41.938, 20.340 47.522, 16.744 53.660 L 10.204 64.820 12.852 67.955 L 15.500 71.089 29.937 70.794 L 44.375 70.500 53.152 56 C 57.980 48.025, 61.945 41.163, 61.965 40.750 C 61.984 40.337, 58.888 40, 55.084 40 L 48.167 40 42.370 49.500 L 36.573 59 32.308 59 L 28.043 59 33.521 49.965 C 36.535 44.996, 39 40.721, 39 40.465 C 39 39.343, 25.183 40.079, 24.264 41.250 M 58.524 58.527 L 47.628 77.094 32.313 76.797 C 23.889 76.634, 16.998 76.605, 16.999 76.733 C 16.999 76.862, 18.674 80.349, 20.719 84.483 L 24.439 92 38.469 91.999 L 52.500 91.998 64.056 72.249 L 75.612 52.500 95.798 52 L 115.984 51.500 112.680 46 L 109.377 40.500 89.399 40.230 L 69.421 39.960 58.524 58.527 M 255 41.238 C 252.147 42.730, 251.055 47.971, 253.222 49.769 C 253.951 50.374, 257.009 51.686, 260.019 52.684 C 266.278 54.761, 267.441 57.010, 263.568 59.547 C 260.509 61.552, 256.913 60.896, 254.038 57.811 C 251.441 55.023, 250.233 56.181, 252.357 59.422 C 255.557 64.305, 266.305 63.617, 267.603 58.446 C 268.698 54.084, 267.196 52.113, 261.519 50.463 C 255.674 48.763, 253.645 47.089, 254.555 44.717 C 255.915 41.173, 262.699 41.859, 264.890 45.762 C 265.808 47.397, 265.907 47.392, 266.569 45.672 C 268.090 41.725, 259.999 38.624, 255 41.238 M 134.151 49.965 C 134.550 60.218, 135.514 61.858, 141.612 62.672 C 144.616 63.073, 146.125 62.698, 148.250 61.023 C 150.883 58.947, 151 58.474, 151 49.927 C 151 44.642, 150.592 41, 150 41 C 149.417 41, 149 44.333, 149 49 C 149 55.667, 148.667 57.333, 147 59 C 144.597 61.403, 142.214 61.538, 139.223 59.443 C 137.224 58.044, 137 57.035, 137 49.443 C 137 42.371, 136.740 41, 135.401 41 C 134.027 41, 133.850 42.269, 134.151 49.965 M 157 51.500 C 157 63.979, 158.785 65.798, 159.210 53.750 L 159.500 45.500 165 53.688 C 168.025 58.191, 171.287 62.086, 172.250 62.344 C 173.838 62.769, 174 61.805, 174 51.906 C 174 43.013, 173.731 41, 172.540 41 C 171.403 41, 171.017 42.811, 170.790 49.197 L 170.500 57.394 165.124 49.197 C 162.167 44.689, 159.130 41, 158.374 41 C 157.296 41, 157 43.262, 157 51.500 M 180 51.500 C 180 57.833, 180.397 62, 181 62 C 181.603 62, 182 57.833, 182 51.500 C 182 45.167, 181.603 41, 181 41 C 180.397 41, 180 45.167, 180 51.500 M 186.461 42.878 C 188.601 49.621, 193.960 61.398, 195.206 62.095 C 196.397 62.762, 197.535 60.804, 200.881 52.331 C 203.183 46.502, 204.856 41.523, 204.600 41.266 C 203.452 40.119, 202.037 42.577, 199.008 50.978 C 197.219 55.940, 195.630 60, 195.478 60 C 195.326 60, 193.693 55.726, 191.850 50.502 C 189.914 45.011, 187.944 41.003, 187.183 41.002 C 186.349 41.001, 186.084 41.689, 186.461 42.878 M 209 51.424 L 209 61.848 217.002 62.174 C 222.912 62.415, 225.004 62.173, 225.002 61.250 C 225.001 60.369, 222.932 60, 218 60 L 211 60 211 56 L 211 52 217.500 52 C 221.167 52, 224 51.564, 224 51 C 224 50.436, 221.167 50, 217.500 50 L 211 50 211 46.500 L 211 43 217.500 43 C 221.167 43, 224 42.564, 224 42 C 224 41.422, 220.833 41, 216.500 41 L 209 41 209 51.424 M 229 51.500 C 229 60.167, 229.262 62, 230.500 62 C 231.611 62, 232 60.833, 232 57.500 C 232 53.036, 232.027 53, 235.452 53 C 238.418 53, 239.340 53.634, 242 57.500 C 243.703 59.975, 245.801 62, 246.663 62 C 248.042 62, 248.020 61.670, 246.483 59.250 C 245.522 57.737, 243.816 55.487, 242.693 54.250 C 241.075 52.467, 240.966 52, 242.171 52 C 244.255 52, 247 48.775, 247 46.326 C 247 42.516, 243.918 41, 236.171 41 L 229 41 229 51.500 M 273 51.500 C 273 60.167, 273.262 62, 274.500 62 C 275.738 62, 276 60.167, 276 51.500 C 276 42.833, 275.738 41, 274.500 41 C 273.262 41, 273 42.833, 273 51.500 M 281 51.500 L 281 62 287.927 62 C 294.220 62, 295.045 61.759, 296.927 59.365 C 300.051 55.394, 299.844 46.753, 296.545 43.455 C 294.439 41.348, 293.162 41, 287.545 41 L 281 41 281 51.500 M 309.603 41.833 C 308.946 42.896, 302 60.942, 302 61.586 C 302 61.814, 302.639 62, 303.421 62 C 304.202 62, 305.138 60.650, 305.500 59 C 306.132 56.123, 306.379 56, 311.500 56 C 316.621 56, 316.868 56.123, 317.500 59 C 317.862 60.650, 318.798 62, 319.579 62 C 321.549 62, 321.479 61.693, 317.065 51 C 313.467 42.287, 311.111 39.393, 309.603 41.833 M 325 51.500 L 325 62 331.326 62 C 336.808 62, 337.970 61.661, 340.040 59.457 C 341.951 57.423, 342.429 55.832, 342.429 51.500 C 342.429 47.168, 341.951 45.577, 340.040 43.543 C 337.970 41.339, 336.808 41, 331.326 41 L 325 41 325 51.500 M 232 47 C 232 50.890, 232.094 51, 235.435 51 C 240.886 51, 244 49.412, 244 46.632 C 244 43.773, 242.387 43, 236.418 43 L 232 43 232 47 M 284 51.500 L 284 60 288.250 59.985 C 293.066 59.967, 294.222 59.409, 295.850 56.316 C 297.607 52.978, 297.225 48.556, 294.927 45.635 C 293.246 43.497, 292.019 43, 288.427 43 L 284 43 284 51.500 M 309.642 47.538 C 307.456 53.952, 307.470 54, 311.500 54 C 313.425 54, 315 53.663, 314.999 53.250 C 314.999 52.837, 314.163 50.299, 313.141 47.610 L 311.284 42.719 309.642 47.538 M 327 51.500 L 327 60 331.943 60 C 337.934 60, 340 57.764, 340 51.277 C 340 45.459, 337.475 43, 331.500 43 L 327 43 327 51.500 M 77.472 61.045 C 73.894 66.713, 60 90.952, 60 91.526 C 60 91.787, 63.038 91.984, 66.750 91.964 L 73.500 91.928 79.592 81.214 C 85.219 71.317, 85.934 70.475, 88.969 70.177 L 92.254 69.854 88.480 76.677 C 86.404 80.430, 83.604 85.412, 82.258 87.750 L 79.810 92 83.818 92 L 87.825 92 93.956 81 C 99.605 70.862, 100.317 70, 103.043 70 C 104.669 70, 106 70.299, 106 70.664 C 106 71.029, 103.525 75.759, 100.500 81.174 C 97.475 86.590, 95 91.241, 95 91.511 C 95 91.780, 98.263 91.995, 102.250 91.989 L 109.500 91.978 117.276 78.328 L 125.052 64.678 122.512 60.839 L 119.972 57 99.998 57 L 80.025 57 77.472 61.045 M 315.607 65.582 C 314.792 67.706, 314.835 68, 315.965 68 C 316.495 68, 317.411 67.100, 318 66 C 318.838 64.434, 318.760 64, 317.642 64 C 316.857 64, 315.941 64.712, 315.607 65.582 M 137.748 70.163 C 131.799 72.336, 133.415 79.279, 140.267 80.988 C 142.595 81.569, 145.175 82.420, 146 82.879 C 148.240 84.126, 148.460 87.190, 146.418 88.684 C 143.645 90.711, 140.162 90.253, 137.409 87.500 C 133.374 83.465, 131.257 84.626, 134.760 88.952 C 137.170 91.928, 144.088 92.828, 147.479 90.606 C 151.276 88.118, 151.041 82.590, 147.050 80.526 C 145.427 79.687, 143.227 79, 142.160 79 C 141.094 79, 139.159 78.100, 137.861 77 L 135.500 75 137.937 72.938 C 140.853 70.471, 144.656 71.029, 147.182 74.296 C 148.106 75.492, 149.155 76.178, 149.513 75.821 C 150.635 74.699, 147.989 70.946, 145.374 69.952 C 142.383 68.815, 141.361 68.843, 137.748 70.163 M 157.645 79.250 C 155.686 84.338, 153.792 89.287, 153.435 90.250 C 152.181 93.631, 155.103 91.997, 156.564 88.500 C 157.954 85.174, 158.271 85, 162.936 85 C 167.613 85, 167.897 85.158, 168.945 88.333 C 169.550 90.167, 170.722 91.667, 171.550 91.667 C 172.378 91.667, 172.931 91.358, 172.778 90.981 C 172.625 90.604, 170.701 85.729, 168.502 80.147 C 163.351 67.074, 162.365 66.992, 157.645 79.250 M 176 81.083 C 176 89.503, 176.300 92.068, 177.250 91.754 C 178.060 91.487, 178.676 88.409, 179 83.009 L 179.500 74.675 185.257 83.338 C 188.423 88.102, 191.460 92, 192.007 92 C 192.604 92, 193 87.618, 193 81 C 193 74.333, 192.606 70, 192 70 C 191.410 70, 190.997 73.588, 190.993 78.750 L 190.986 87.500 185.243 78.769 C 177.174 66.501, 176 66.795, 176 81.083 M 197 71 C 197 71.550, 198.800 72, 201 72 L 205 72 205 82 C 205 88, 205.400 92, 206 92 C 206.600 92, 207 88, 207 82 L 207 72 211 72 C 213.200 72, 215 71.550, 215 71 C 215 70.407, 211.333 70, 206 70 C 200.667 70, 197 70.407, 197 71 M 220.956 72.677 C 220.378 74.230, 218.577 78.973, 216.953 83.218 C 213.624 91.919, 213.606 92, 215.051 92 C 215.629 92, 216.760 90.425, 217.564 88.500 C 218.954 85.174, 219.271 85, 223.936 85 C 228.613 85, 228.897 85.158, 229.945 88.333 C 230.550 90.167, 231.710 91.667, 232.523 91.667 C 234.430 91.667, 234.551 92.128, 229.607 80.500 C 225.032 69.738, 222.800 67.720, 220.956 72.677 M 244.216 80.669 C 244.409 87.917, 244.888 91.466, 245.712 91.739 C 246.589 92.030, 247.003 89.573, 247.212 82.821 L 247.500 73.500 250.563 82.438 C 252.247 87.353, 254.098 91.533, 254.676 91.725 C 255.254 91.918, 257.251 87.896, 259.114 82.788 L 262.500 73.500 262.788 82.750 C 263.195 95.861, 265 94.433, 265 81 C 265 71.047, 264.827 70, 263.188 70 C 261.786 70, 260.725 72.036, 258.500 79 C 256.918 83.950, 255.343 88, 255 88 C 254.657 88, 253.082 83.950, 251.500 79 C 248.957 71.042, 248.352 70, 246.278 70 C 243.946 70, 243.934 70.062, 244.216 80.669 M 276.569 70.889 C 275.642 72.388, 269 90.112, 269 91.086 C 269 93.320, 270.985 91.683, 272.136 88.500 C 273.346 85.155, 273.617 85, 278.252 85 C 282.850 85, 283.178 85.182, 284.564 88.500 C 286.220 92.463, 288.550 93.328, 287.623 89.636 C 287.297 88.336, 285.403 83.386, 283.415 78.636 C 280.129 70.786, 278.071 68.457, 276.569 70.889 M 292 81 C 292 87.667, 292.394 92, 293 92 C 293.550 92, 294 89.750, 294 87 L 294 82 297.502 82 C 300.542 82, 301.461 82.637, 304.476 86.833 C 308.402 92.298, 312.196 93.844, 309.208 88.761 C 308.269 87.163, 306.667 84.959, 305.649 83.862 C 303.606 81.660, 303.580 81.750, 306.750 80.100 C 308.385 79.250, 309 78.037, 309 75.665 C 309 70.860, 307.527 70, 299.300 70 L 292 70 292 81 M 315.216 80.669 C 315.414 88.104, 315.879 91.463, 316.750 91.752 C 317.700 92.067, 318 89.505, 318 81.083 C 318 71.789, 317.752 70, 316.466 70 C 315.166 70, 314.976 71.624, 315.216 80.669 M 325.725 80.255 C 321.679 91.232, 321.497 92, 322.935 92 C 323.450 92, 324.440 90.425, 325.136 88.500 C 326.346 85.155, 326.617 85, 331.252 85 C 335.850 85, 336.178 85.182, 337.564 88.500 C 338.945 91.803, 341 93.261, 341 90.937 C 341 90.352, 339.144 85.402, 336.876 79.937 C 334.043 73.109, 332.243 70.001, 331.126 70.005 C 329.977 70.008, 328.391 73.018, 325.725 80.255 M 161.105 76.044 C 160.419 78.334, 159.616 80.836, 159.322 81.604 C 158.917 82.657, 159.783 83, 162.849 83 L 166.911 83 165.491 78.974 C 162.953 71.780, 162.478 71.463, 161.105 76.044 M 221.717 76.934 C 220.773 79.593, 220 82.046, 220 82.384 C 220 82.723, 221.793 83, 223.985 83 L 227.971 83 225.902 77.750 C 224.764 74.862, 223.743 72.410, 223.633 72.300 C 223.523 72.190, 222.661 74.276, 221.717 76.934 M 276.666 76.206 C 274.317 82.355, 274.491 83, 278.500 83 C 282.568 83, 282.568 83, 280.165 76.672 L 278.331 71.844 276.666 76.206 M 294.187 75.698 C 294.489 79.371, 294.639 79.510, 298.579 79.799 C 303.816 80.183, 308.128 77.157, 306.396 74.313 C 305.581 72.973, 303.804 72.421, 299.583 72.198 L 293.873 71.896 294.187 75.698 M 329.301 77.156 L 327.263 82.500 330.732 82.816 C 332.640 82.990, 334.424 82.910, 334.697 82.637 C 334.969 82.364, 334.325 79.817, 333.266 76.976 L 331.339 71.812 329.301 77.156" stroke="none" fill="#0B2A78" fill-rule="evenodd"/>
</svg>